<svg width="24" height="24" viewBox="0 0 24 24" fill="none" xmlns="http://www.w3.org/2000/svg">
<g clip-path="url(#clip0_2014_8)">
<path d="M23.797 22.8087L18.3435 17.3559C20.0206 15.4545 20.9441 13.0053 20.9401 10.4701C20.9401 7.67315 19.8512 5.04377 17.8738 3.06633C15.8963 1.08889 13.267 0 10.4707 0C7.67455 0 5.04447 1.08889 3.06633 3.06563C1.08819 5.04238 0 7.67245 0 10.4694C0 13.2663 1.08889 15.8949 3.06633 17.8724C5.04377 19.8498 7.67315 20.9394 10.47 20.9394C13.0317 20.9394 15.4468 20.0159 17.3559 18.3421L22.8087 23.7949C22.8733 23.86 22.9502 23.9116 23.0349 23.9468C23.1196 23.982 23.2104 24.0002 23.3021 24.0002C23.3939 24.0002 23.4847 23.982 23.5694 23.9468C23.6541 23.9116 23.731 23.86 23.7956 23.7949C23.9265 23.664 24 23.4865 24 23.3014C24 23.1164 23.9265 22.9389 23.7956 22.808L23.797 22.8087ZM4.05331 16.8861C2.33971 15.1718 1.39601 12.8935 1.39601 10.4701C1.39601 8.04658 2.33971 5.7676 4.05331 4.05331C5.7676 2.33971 8.04588 1.39601 10.47 1.39601C12.8942 1.39601 15.1725 2.33971 16.8868 4.05331C18.6004 5.7676 19.5448 8.04588 19.5448 10.4701C19.5448 12.8942 18.6004 15.1718 16.8868 16.8861C15.1725 18.5997 12.8942 19.5441 10.4707 19.5441C8.04728 19.5441 5.7669 18.5997 4.05331 16.8861Z" fill="white"/>
</g>
<defs>
<clipPath id="clip0_2014_8">
<rect width="24" height="24" fill="white"/>
</clipPath>
</defs>
</svg>
